# xmcd
#
# Track frame offsets: 
#        150
#        17558
#        34898
#        48181
#        65945
#        86364
#        113880
#        127367
#        148187
#        156096
#        171200
#        192260
#        202103
#        213961
#        230159
#        243814
#        255626
#        268891
#        284215
#        298844
#        310249
#        321383
#
# Disc length: 4449 seconds
#
# Revision: 1
# Processed by: cddbd v1.5.2PL0 Copyright (c) Steve Scherf et al.
# Submitted via: ExactAudioCopy v0.99pb3
#
DISCID=66115f16
DTITLE=Машина Времени - Легенды Русского Рока
DYEAR=1998
DGENRE=Rock
TTITLE0=Первый Шаг
TTITLE1=Если Бы Мы Были Взрослей
TTITLE2=Рыбка В Банке
TTITLE3=Морской Закон
TTITLE4=Музыка Под Снегом
TTITLE5=Хрустальный Город
TTITLE6=Право
TTITLE7=Маски
TTITLE8=День Гнева
TTITLE9=Будет День...
TTITLE10=Дай Мне Ответ
TTITLE11=В Никитском Ботаническом Саду
TTITLE12=Ах. Что За Луна
TTITLE13=Через 20 Лет
TTITLE14=Вот, Что Странно
TTITLE15=Новый День Придет
TTITLE16=Странный Музей
TTITLE17=Скажем Прямо
TTITLE18=Где Б Найти Подругу Жизни
TTITLE19=Звездная Сирень
TTITLE20=Про Собственное Лицо
TTITLE21=Про Новый Дом
EXTD=
EXTT0=
EXTT1=
EXTT2=
EXTT3=
EXTT4=
EXTT5=
EXTT6=
EXTT7=
EXTT8=
EXTT9=
EXTT10=
EXTT11=
EXTT12=
EXTT13=
EXTT14=
EXTT15=
EXTT16=
EXTT17=
EXTT18=
EXTT19=
EXTT20=
EXTT21=
PLAYORDER=
